<svg xmlns="http://www.w3.org/2000/svg" viewBox="0 0 512 512">
  <defs>
    <linearGradient id="grad" x1="0%" y1="0%" x2="100%" y2="100%">
      <stop offset="0%" stop-color="#3730a3" />
      <stop offset="100%" stop-color="#0f766e" />
    </linearGradient>
  </defs>
  <rect width="512" height="512" rx="96" fill="url(#grad)" />
  <g fill="#f8fafc" transform="translate(96 96)">
    <path d="M160 0c88.366 0 160 71.634 160 160s-71.634 160-160 160S0 248.366 0 160 71.634 0 160 0zm0 32C88.603 32 32 88.603 32 160s56.603 128 128 128 128-56.603 128-128S231.397 32 160 32z" opacity="0.2" />
    <path d="M92 84h196a20 20 0 0 1 20 20v94a20 20 0 0 1-20 20h-126l-62 62a9 9 0 0 1-15-6v-170a20 20 0 0 1 20-20zm28 34a12 12 0 1 0 0 24h120a12 12 0 1 0 0-24H120zm0 54a12 12 0 1 0 0 24h70a12 12 0 1 0 0-24h-70z" />
    <path d="M220 268c24.853 0 45 20.147 45 45v12c0 10.493-8.507 19-19 19H108c-10.493 0-19-8.507-19-19v-12c0-24.853 20.147-45 45-45h86z" opacity="0.25" />
  </g>
</svg>
